<?xml version="1.0" standalone="no"?><!DOCTYPE svg PUBLIC "-//W3C//DTD SVG 1.1//EN" "http://www.w3.org/Graphics/SVG/1.1/DTD/svg11.dtd"><svg t="1599389277956" class="icon" viewBox="0 0 1024 1024" version="1.1" xmlns="http://www.w3.org/2000/svg" p-id="11132" xmlns:xlink="http://www.w3.org/1999/xlink" width="200" height="200"><defs><style type="text/css"></style></defs><path d="M881.2186 173.8066 774.903808 173.8066c-11.5579 0-20.9111 9.3624-20.9111 20.9111 0 11.5476 9.3532 20.9121 20.9111 20.9121l106.314752 0 0 703.151104L143.43168 918.780904 143.43168 215.629824l108.030976 0c11.5589 0 20.9111-9.3645 20.9111-20.9121 0-11.5487-9.3532-20.9111-20.9111-20.9111L143.43168 173.806624c-23.0554 0-41.8222 18.7566-41.8222 41.8232l0 703.151104c0 23.0564 18.7668 41.8232 41.8222 41.8232l737.78688 0c23.0554 0 41.8232-18.7668 41.8232-41.8232L923.04176 215.629824C923.0418 192.5632 904.2739 173.8066 881.2186 173.8066zM346.3393 216.9364 678.310912 216.9364c11.5589 0 20.9121-9.3624 20.9121-20.9121 0-11.5476-9.3532-20.9101-20.9121-20.9101l-64.123904 0c0.3072-2.818 0.7363-5.5951 0.7363-8.4961 0-56.5678-46.0298-102.5966-102.5966-102.5966-56.5678 0-102.5976 46.0288-102.5976 102.5966 0 2.901 0.4291 5.6781 0.7352 8.4961l-64.123904 0c-11.5589 0-20.9111 9.3624-20.9111 20.9101C325.4272 207.574 334.7804 216.9364 346.3393 216.9364zM451.5512 166.6181c0-33.5114 27.262-60.7744 60.7744-60.7744 33.5114 0 60.7744 27.263 60.7744 60.7744 0 2.942-0.6738 5.6781-1.1233 8.4961L452.673536 175.1142C452.224 172.2962 451.5512 169.559 451.5512 166.6181zM302.1066 421.4774l420.436992 0c11.5589 0 20.9111-9.3635 20.9111-20.9111s-9.3522-20.9121-20.9111-20.9121L302.106624 379.6542c-11.5589 0-20.9111 9.3645-20.9111 20.9121S290.5487 421.4774 302.1066 421.4774zM302.1066 601.1863l420.436992 0c11.5589 0 20.9111-9.3532 20.9111-20.9111s-9.3522-20.9121-20.9111-20.9121L302.106624 559.3631c-11.5589 0-20.9111 9.3542-20.9111 20.9121S290.5487 601.1863 302.1066 601.1863zM302.1066 780.8952l420.436992 0c11.5589 0 20.9111-9.3522 20.9111-20.9121 0-11.5579-9.3522-20.9101-20.9111-20.9101L302.106624 739.073c-11.5589 0-20.9111 9.3522-20.9111 20.9101C281.1955 771.543 290.5487 780.8952 302.1066 780.8952z" p-id="11133" fill="#02a774"></path></svg>