<?xml version="1.0" standalone="no"?><!DOCTYPE svg PUBLIC "-//W3C//DTD SVG 1.1//EN" "http://www.w3.org/Graphics/SVG/1.1/DTD/svg11.dtd"><svg t="1599389349578" class="icon" viewBox="0 0 1024 1024" version="1.1" xmlns="http://www.w3.org/2000/svg" p-id="12068" xmlns:xlink="http://www.w3.org/1999/xlink" width="200" height="200"><defs><style type="text/css"></style></defs><path d="M261.5 934.1c-19.8 0-37.8-7.2-52.2-21.6-14.4-14.4-21.6-32.4-21.6-52.2V543.8h-43.2c-19.8 0-68.3 0-79.1-28.8-9-28.8 23.4-61.1 34.2-71.9L450.3 132c7.2-7.2 34.2-36 62.9-36 28.8 0 55.8 27 61.1 34.2l357.9 312.9c9 7.2 45 45 25.2 75.5-18 27-64.7 25.2-73.7 25.2h-45v316.5c0 41.4-34.2 73.7-73.7 73.7H597.8V765c0-46.8-37.8-86.3-86.3-86.3-46.8 0-86.3 37.8-86.3 86.3v169.1H261.5zM204 507.8h18v352.5c0 10.8 3.6 19.8 10.8 27 7.2 7.2 16.2 10.8 27 10.8H391V765c0-66.5 54-120.5 120.6-120.4 66.5 0 120.4 53.9 120.4 120.4v133.1h133.1c21.6 0 39.6-18 39.6-39.6V507.8h80.9c18 1.8 39.6-1.8 43.2-9 1.8-5.4-9-19.8-19.8-30.6L549.3 153.5c-9-9-25.2-23.4-36-23.4s-28.8 14.4-37.8 25.2l-1.8 1.8-350.7 313c-10.8 10.8-23.4 25.2-23.4 32.4 5.4 3.6 25.2 5.4 43.2 5.4H204z" fill="#999999" p-id="12069"></path></svg>