<?xml version="1.0" standalone="no"?><!DOCTYPE svg PUBLIC "-//W3C//DTD SVG 1.1//EN" "http://www.w3.org/Graphics/SVG/1.1/DTD/svg11.dtd"><svg t="1599389507641" class="icon" viewBox="0 0 1024 1024" version="1.1" xmlns="http://www.w3.org/2000/svg" p-id="13197" xmlns:xlink="http://www.w3.org/1999/xlink" width="200" height="200"><defs><style type="text/css"></style></defs><path d="M926.72 870.4l-256-256c56.32-56.32 76.8-133.12 76.8-220.16 0-179.2-138.24-327.68-317.44-327.68S107.52 215.04 107.52 394.24s143.36 317.44 322.56 317.44c76.8 0 143.36-15.36 199.68-61.44l256 261.12c5.12 5.12 10.24 5.12 15.36 5.12 5.12 0 15.36-5.12 20.48-10.24C931.84 896 936.96 880.64 926.72 870.4L926.72 870.4zM158.72 389.12c0-148.48 122.88-271.36 271.36-271.36s271.36 122.88 271.36 271.36-122.88 271.36-271.36 271.36C276.48 660.48 158.72 537.6 158.72 389.12L158.72 389.12z" p-id="13198" fill="#02a774"></path></svg>